<?xml version="1.0" standalone="no"?>
<!DOCTYPE svg PUBLIC "-//W3C//DTD SVG 20010904//EN"
 "http://www.w3.org/TR/2001/REC-SVG-20010904/DTD/svg10.dtd">
<svg version="1.0" xmlns="http://www.w3.org/2000/svg"
 width="16.000000pt" height="16.000000pt" viewBox="0 0 16.000000 16.000000"
 preserveAspectRatio="xMidYMid meet">

<g transform="translate(0.000000,16.000000) scale(0.100000,-0.100000)"
fill="#000000" stroke="none">
<path d="M74 148 c-26 -12 -70 -126 -54 -142 7 -7 17 -7 31 3 15 9 24 10 32 2
13 -13 44 -14 51 -2 3 5 -1 28 -9 51 -8 23 -15 53 -15 66 0 28 -9 34 -36 22z
m22 -40 c0 -18 2 -39 5 -47 2 -7 -2 -16 -8 -18 -9 -3 -13 5 -13 22 0 15 -4 24
-10 20 -5 -3 -10 -14 -10 -25 0 -10 -7 -21 -16 -24 -12 -5 -15 -2 -9 11 4 10
12 32 18 48 9 27 24 44 37 45 3 0 5 -15 6 -32z"/>
</g>
</svg>
